G04 #@! TF.FileFunction,Copper,L2,Bot,Signal*
%FSLAX46Y46*%
G04 Gerber Fmt 4.6, Leading zero omitted, Abs format (unit mm)*
G04 Created by KiCad (PCBNEW 4.0.1-stable) date 2016-06-23 02:02:48*
%MOMM*%
G01*
G04 APERTURE LIST*
%ADD10C,0.100000*%
%ADD11O,3.500120X1.699260*%
%ADD12O,2.500000X4.000000*%
%ADD13R,2.235200X2.235200*%
%ADD14C,2.540000*%
%ADD15C,1.828800*%
%ADD16C,0.254000*%
G04 APERTURE END LIST*
D10*
D11*
X136017000Y-97536000D03*
X136017000Y-100076000D03*
X136017000Y-94996000D03*
D12*
X149646000Y-105156000D03*
X154646000Y-105156000D03*
X154646000Y-97028000D03*
X149646000Y-97028000D03*
X144646000Y-97028000D03*
D13*
X139319000Y-93980000D03*
D14*
X143002000Y-101396800D02*
X148234400Y-101396800D01*
X149646000Y-99985200D02*
X149646000Y-97028000D01*
X148234400Y-101386000D02*
X149646000Y-99974400D01*
X138277600Y-97536000D02*
X139141200Y-97536000D01*
X139141200Y-97536000D02*
X143002000Y-101396800D01*
D15*
X136017000Y-97536000D02*
X138277600Y-97536000D01*
D14*
X136017000Y-100863400D02*
X140309600Y-105156000D01*
D15*
X136017000Y-100076000D02*
X136017000Y-100863400D01*
D14*
X145856000Y-105156000D02*
X140309600Y-105156000D01*
X149646000Y-105156000D02*
X145856000Y-105156000D01*
X154635200Y-105156000D02*
X154635200Y-97028000D01*
D16*
G36*
X158040000Y-109780000D02*
X152527000Y-109780000D01*
X152527000Y-92785000D01*
X158040000Y-92785000D01*
X158040000Y-109780000D01*
X158040000Y-109780000D01*
G37*
X158040000Y-109780000D02*
X152527000Y-109780000D01*
X152527000Y-92785000D01*
X158040000Y-92785000D01*
X158040000Y-109780000D01*
G36*
X137553960Y-92862400D02*
X137553960Y-93638854D01*
X137532299Y-93624381D01*
X136964156Y-93511370D01*
X135069844Y-93511370D01*
X134501701Y-93624381D01*
X134020052Y-93946208D01*
X133698225Y-94427857D01*
X133585214Y-94996000D01*
X133698225Y-95564143D01*
X134020052Y-96045792D01*
X134349617Y-96266000D01*
X134020052Y-96486208D01*
X133698225Y-96967857D01*
X133585214Y-97536000D01*
X133698225Y-98104143D01*
X134020052Y-98585792D01*
X134501701Y-98907619D01*
X135069844Y-99020630D01*
X135691379Y-99020630D01*
X136017000Y-99085400D01*
X137233417Y-99085400D01*
X137548588Y-99295991D01*
X138277600Y-99441000D01*
X138352124Y-99441000D01*
X141654962Y-102743839D01*
X142256825Y-103145991D01*
X142272988Y-103156791D01*
X143002000Y-103301800D01*
X148234400Y-103301800D01*
X148963412Y-103156791D01*
X149581438Y-102743838D01*
X149603186Y-102711290D01*
X150960493Y-101353984D01*
X150993038Y-101332238D01*
X151405991Y-100714212D01*
X151551000Y-99985200D01*
X151551000Y-97028000D01*
X151531000Y-96927453D01*
X151531000Y-96226377D01*
X151387513Y-95505019D01*
X150978896Y-94893481D01*
X150367358Y-94484864D01*
X149646000Y-94341377D01*
X148924642Y-94484864D01*
X148313104Y-94893481D01*
X147904487Y-95505019D01*
X147761000Y-96226377D01*
X147761000Y-96927453D01*
X147741000Y-97028000D01*
X147741000Y-99185323D01*
X147434524Y-99491800D01*
X145486093Y-99491800D01*
X145978896Y-99162519D01*
X146387513Y-98550981D01*
X146531000Y-97829623D01*
X146531000Y-96226377D01*
X146387513Y-95505019D01*
X145978896Y-94893481D01*
X145367358Y-94484864D01*
X144646000Y-94341377D01*
X143924642Y-94484864D01*
X143313104Y-94893481D01*
X142904487Y-95505019D01*
X142761000Y-96226377D01*
X142761000Y-97829623D01*
X142904487Y-98550981D01*
X143013687Y-98714411D01*
X140488238Y-96188962D01*
X139870212Y-95776009D01*
X139714520Y-95745040D01*
X140436600Y-95745040D01*
X140671917Y-95700762D01*
X140888041Y-95561690D01*
X141033031Y-95349490D01*
X141084040Y-95097600D01*
X141084040Y-92862400D01*
X141069476Y-92785000D01*
X151765000Y-92785000D01*
X151765000Y-109780000D01*
X116280000Y-109780000D01*
X116280000Y-98038015D01*
X116717641Y-98038015D01*
X117102746Y-98970041D01*
X117815208Y-99683748D01*
X118746561Y-100070479D01*
X119755015Y-100071359D01*
X120687041Y-99686254D01*
X121400748Y-98973792D01*
X121787479Y-98042439D01*
X121788359Y-97033985D01*
X121403254Y-96101959D01*
X120690792Y-95388252D01*
X119759439Y-95001521D01*
X118750985Y-95000641D01*
X117818959Y-95385746D01*
X117105252Y-96098208D01*
X116718521Y-97029561D01*
X116717641Y-98038015D01*
X116280000Y-98038015D01*
X116280000Y-92785000D01*
X137569634Y-92785000D01*
X137553960Y-92862400D01*
X137553960Y-92862400D01*
G37*
X137553960Y-92862400D02*
X137553960Y-93638854D01*
X137532299Y-93624381D01*
X136964156Y-93511370D01*
X135069844Y-93511370D01*
X134501701Y-93624381D01*
X134020052Y-93946208D01*
X133698225Y-94427857D01*
X133585214Y-94996000D01*
X133698225Y-95564143D01*
X134020052Y-96045792D01*
X134349617Y-96266000D01*
X134020052Y-96486208D01*
X133698225Y-96967857D01*
X133585214Y-97536000D01*
X133698225Y-98104143D01*
X134020052Y-98585792D01*
X134501701Y-98907619D01*
X135069844Y-99020630D01*
X135691379Y-99020630D01*
X136017000Y-99085400D01*
X137233417Y-99085400D01*
X137548588Y-99295991D01*
X138277600Y-99441000D01*
X138352124Y-99441000D01*
X141654962Y-102743839D01*
X142256825Y-103145991D01*
X142272988Y-103156791D01*
X143002000Y-103301800D01*
X148234400Y-103301800D01*
X148963412Y-103156791D01*
X149581438Y-102743838D01*
X149603186Y-102711290D01*
X150960493Y-101353984D01*
X150993038Y-101332238D01*
X151405991Y-100714212D01*
X151551000Y-99985200D01*
X151551000Y-97028000D01*
X151531000Y-96927453D01*
X151531000Y-96226377D01*
X151387513Y-95505019D01*
X150978896Y-94893481D01*
X150367358Y-94484864D01*
X149646000Y-94341377D01*
X148924642Y-94484864D01*
X148313104Y-94893481D01*
X147904487Y-95505019D01*
X147761000Y-96226377D01*
X147761000Y-96927453D01*
X147741000Y-97028000D01*
X147741000Y-99185323D01*
X147434524Y-99491800D01*
X145486093Y-99491800D01*
X145978896Y-99162519D01*
X146387513Y-98550981D01*
X146531000Y-97829623D01*
X146531000Y-96226377D01*
X146387513Y-95505019D01*
X145978896Y-94893481D01*
X145367358Y-94484864D01*
X144646000Y-94341377D01*
X143924642Y-94484864D01*
X143313104Y-94893481D01*
X142904487Y-95505019D01*
X142761000Y-96226377D01*
X142761000Y-97829623D01*
X142904487Y-98550981D01*
X143013687Y-98714411D01*
X140488238Y-96188962D01*
X139870212Y-95776009D01*
X139714520Y-95745040D01*
X140436600Y-95745040D01*
X140671917Y-95700762D01*
X140888041Y-95561690D01*
X141033031Y-95349490D01*
X141084040Y-95097600D01*
X141084040Y-92862400D01*
X141069476Y-92785000D01*
X151765000Y-92785000D01*
X151765000Y-109780000D01*
X116280000Y-109780000D01*
X116280000Y-98038015D01*
X116717641Y-98038015D01*
X117102746Y-98970041D01*
X117815208Y-99683748D01*
X118746561Y-100070479D01*
X119755015Y-100071359D01*
X120687041Y-99686254D01*
X121400748Y-98973792D01*
X121787479Y-98042439D01*
X121788359Y-97033985D01*
X121403254Y-96101959D01*
X120690792Y-95388252D01*
X119759439Y-95001521D01*
X118750985Y-95000641D01*
X117818959Y-95385746D01*
X117105252Y-96098208D01*
X116718521Y-97029561D01*
X116717641Y-98038015D01*
X116280000Y-98038015D01*
X116280000Y-92785000D01*
X137569634Y-92785000D01*
X137553960Y-92862400D01*
M02*
